<svg width="36" height="36" viewBox="0 0 36 36" fill="none" xmlns="http://www.w3.org/2000/svg">
<g transform="translate(9 8.501)">
<path id="Vector" fill-rule="evenodd" clip-rule="evenodd" d="M5.3636 16.7672C5.27207 16.7024 5.14597 16.72 5.06926 16.8018C4.04401 17.8953 1.42014 18.6623 1.29994 17.1699C1.29994 16.0005 1.0373 15.0151 0.748128 13.9302C0.393963 12.6014 0 11.1234 0 8.97515C0 3.85249 4.20123 0 9.18247 0C14.1637 0 18.0692 4.04059 18.0692 9.0249C18.0692 14.0092 14.0394 17.9503 9.22961 17.9503C7.52321 17.9503 6.69515 17.71 5.3636 16.7672ZM9.32219 4.44161C6.95825 4.31765 5.11351 5.95797 4.70672 8.52535C4.36985 10.6515 4.96712 13.2421 5.47799 13.3725C5.69468 13.4278 6.21612 13.029 6.59549 12.6713C6.66681 12.604 6.77466 12.5927 6.8583 12.6438C7.44968 13.0055 8.11924 13.2772 8.85739 13.3159C11.2843 13.4432 13.4349 11.5438 13.562 9.11675C13.6891 6.68969 11.7491 4.56888 9.32219 4.44161Z" fill="white"/>
</g>
</svg>
