<svg width="33" height="33" viewBox="0 0 33 33" fill="none" xmlns="http://www.w3.org/2000/svg">
  <path d="M17.0179 0C24.4233 0 28.1265 -0.000214577 30.427 2.30025C32.7275 4.6008 32.7273 8.30395 32.7273 15.7093V17.0179C32.7273 24.4233 32.7275 28.1266 30.427 30.427C28.1265 32.7275 24.4233 32.7273 17.0179 32.7273H15.7093C8.30399 32.7273 4.60081 32.7275 2.30025 30.427C-0.000219345 28.1266 0 24.4233 0 17.0179V15.7093C0 8.30395 -0.000216527 4.6008 2.30025 2.30025C4.60081 -0.000214577 8.30395 0 15.7093 0H17.0179ZM19.4052 6.29972C18.4006 6.05516 17.4263 6.79239 17.4263 7.79652V9.67418L13.418 8.69851C12.4136 8.45415 11.44 9.19038 11.44 10.1944V12.0721L7.43164 11.0964C6.42719 10.852 5.45373 11.5883 5.45366 12.5923V23.0078C5.45366 23.8919 6.07322 24.663 6.95756 24.8784L13.3194 26.4267C14.3238 26.6711 15.2974 25.9348 15.2974 24.9308L15.2983 14.5304C15.2983 13.6517 14.7285 13.1417 14.5215 12.9856C14.4821 12.9558 14.471 12.9006 14.4993 12.8604C14.5272 12.8211 14.5774 12.8023 14.6245 12.8161C15.4626 13.0627 16.2649 13.9002 16.345 14.9529L16.6211 22.9075C16.6302 23.1687 16.804 23.3949 17.0534 23.4801L19.3058 24.0288C20.3101 24.2732 21.2844 23.5368 21.2846 22.5328L21.2855 12.1333C21.2855 11.2549 20.7167 10.7449 20.5096 10.5886C20.4701 10.5589 20.459 10.5036 20.4874 10.4634C20.5153 10.424 20.5655 10.4052 20.6126 10.419C21.4506 10.6656 22.2521 11.5033 22.3322 12.5559L22.6092 20.5096C22.6186 20.7816 22.8074 21.0154 23.0744 21.0902L25.2921 21.6309C26.2966 21.8753 27.271 21.1382 27.271 20.1341V9.71857C27.271 8.83445 26.6506 8.06329 25.7662 7.84801L19.4052 6.29972Z" fill="black"/>
</svg>
